<svg xmlns="http://www.w3.org/2000/svg" version="1.1" xmlns:xlink="http://www.w3.org/1999/xlink" xmlns:svgjs="http://svgjs.dev/svgjs" width="1000" height="1000" viewBox="0 0 1000 1000"><g transform="matrix(1,0,0,1,0,0.0003381844799150713)"><svg viewBox="0 0 280 280" data-background-color="#ffffff" preserveAspectRatio="xMidYMid meet" height="1000" width="1000" xmlns="http://www.w3.org/2000/svg" xmlns:xlink="http://www.w3.org/1999/xlink"><g id="tight-bounds" transform="matrix(1,0,0,1,0,-0.00009469165436826188)"><svg viewBox="0 0 280 280" height="280" width="280"><g><svg viewBox="0 0 280 280" height="280" width="280"><g><svg viewBox="0 0 280 280" height="280" width="280"><g id="textblocktransform"><svg viewBox="0 0 280 280" height="280" width="280" id="textblock"><g><svg viewBox="0 0 280 280" height="280" width="280"><g transform="matrix(1,0,0,1,74.00336708925556,74.00336708925556)"><svg viewBox="0 0 131.99326582148888 131.99326582148888" height="131.99326582148888" width="131.99326582148888"><g><circle r="66" cx="65.99663291074444" cy="65.99663291074444" fill="#8d021f" data-fill-palette-color="accent"></circle></g></svg></g><g><path d="M9.687 180.313L39.456 182.032 41.616 187.417 21.423 209.574 19.282 204.236 22.689 200.544 16.823 185.918 11.835 185.669ZM21.783 186.178L26.069 196.864 35.282 186.886ZM24.948 215.009L47.011 199.463 54.914 210.679C56.109 212.375 56.966 213.968 57.485 215.461 58.01 216.949 58.228 218.339 58.139 219.629 58.044 220.924 57.659 222.108 56.983 223.182 56.302 224.26 55.357 225.224 54.148 226.076V226.076C53.327 226.654 52.478 227.105 51.601 227.428 50.724 227.752 49.829 227.928 48.916 227.957 48.009 227.983 47.093 227.855 46.166 227.574 45.249 227.295 44.335 226.851 43.422 226.242V226.242L39.748 236.014 35.886 230.533 39.229 221.964 39.143 221.841 34.375 215.058 28.099 219.481ZM38.248 212.329L43.081 219.188C43.679 220.036 44.299 220.708 44.944 221.204 45.588 221.7 46.24 222.038 46.9 222.22 47.561 222.392 48.224 222.404 48.889 222.255 49.544 222.104 50.189 221.805 50.823 221.358V221.358C52.054 220.491 52.707 219.396 52.783 218.075 52.862 216.758 52.3 215.247 51.098 213.54V213.54L46.264 206.681ZM45.367 241.331L64.38 222.175 68.291 226.057 49.277 245.213ZM53.558 248.673L79.037 233.181 83.872 236.387 79.836 266.093 75.042 262.915 75.75 257.941 62.615 249.234 58.368 251.862ZM66.845 246.631L76.441 252.992 78.357 239.547ZM85.867 268.552L95.006 243.156 100.163 245.011 112.998 258.996 115.982 250.704 121.139 252.56 112 277.956 106.843 276.1 111.034 264.455 98.181 250.517 91.024 270.407ZM133.335 276.627L136.067 272.078C137.072 272.594 138.084 273.053 139.105 273.454 140.132 273.855 141.19 274.188 142.279 274.453 143.374 274.711 144.52 274.896 145.716 275.009 146.913 275.122 148.183 275.152 149.527 275.099V275.099C151.152 275.034 152.528 274.876 153.657 274.623 154.792 274.364 155.709 274.032 156.41 273.63 157.117 273.226 157.624 272.761 157.931 272.233 158.238 271.699 158.379 271.127 158.355 270.519V270.519C158.316 269.542 157.878 268.786 157.04 268.25 156.194 267.708 154.922 267.471 153.224 267.538V267.538C152.475 267.568 151.688 267.65 150.863 267.783 150.038 267.916 149.207 268.056 148.369 268.204 147.524 268.351 146.693 268.491 145.874 268.624 145.055 268.751 144.285 268.828 143.563 268.857V268.857C142.353 268.905 141.187 268.797 140.064 268.534 138.942 268.264 137.941 267.838 137.06 267.257 136.18 266.669 135.467 265.918 134.921 265.002 134.383 264.092 134.089 263.016 134.04 261.772V261.772C134.01 261.037 134.082 260.304 134.253 259.574 134.425 258.837 134.718 258.132 135.134 257.459 135.549 256.78 136.096 256.139 136.775 255.536 137.454 254.94 138.284 254.414 139.264 253.96 140.243 253.506 141.381 253.136 142.675 252.85 143.97 252.564 145.453 252.388 147.124 252.322V252.322C148.328 252.274 149.544 252.292 150.773 252.377 151.995 252.456 153.189 252.596 154.355 252.797 155.522 252.992 156.646 253.235 157.73 253.527 158.813 253.825 159.821 254.164 160.753 254.542V254.542L158.532 259.06C157.763 258.756 156.935 258.477 156.048 258.225 155.161 257.979 154.239 257.771 153.281 257.601 152.317 257.432 151.324 257.308 150.303 257.228 149.275 257.148 148.233 257.129 147.176 257.171V257.171C145.672 257.231 144.436 257.391 143.469 257.65 142.508 257.909 141.747 258.218 141.185 258.575 140.624 258.939 140.238 259.336 140.027 259.766 139.823 260.196 139.729 260.618 139.746 261.033V261.033C139.778 261.835 140.165 262.479 140.908 262.966 141.657 263.445 142.773 263.655 144.258 263.596V263.596C144.853 263.572 145.536 263.501 146.309 263.384 147.081 263.266 147.893 263.14 148.744 263.005 149.603 262.864 150.475 262.732 151.361 262.61 152.247 262.494 153.111 262.42 153.953 262.386V262.386C155.538 262.323 156.949 262.445 158.187 262.75 159.431 263.056 160.478 263.523 161.326 264.152 162.182 264.781 162.842 265.555 163.307 266.474 163.772 267.393 164.028 268.435 164.074 269.598V269.598C164.136 271.149 163.83 272.548 163.156 273.793 162.483 275.032 161.5 276.096 160.21 276.984 158.912 277.873 157.336 278.569 155.481 279.071 153.619 279.58 151.539 279.881 149.239 279.972V279.972C147.721 280.033 146.233 279.995 144.774 279.858 143.322 279.729 141.924 279.516 140.58 279.222 139.235 278.92 137.955 278.549 136.739 278.109 135.516 277.669 134.381 277.175 133.335 276.627ZM172.798 276.677L164.652 250.945 169.867 249.294 171.994 256.012 188.003 250.944 185.877 244.226 191.111 242.569 199.257 268.301 194.023 269.958 189.415 255.403 173.406 260.471 178.013 275.026ZM205.447 264.651L200.635 235.223 205.419 231.941 231.446 246.818 226.703 250.072 222.357 247.551 209.362 256.464 210.206 261.387ZM208.534 251.567L218.028 245.055 206.281 238.239ZM235.995 242.15L215.942 224.086 219.603 220.021 229.984 229.373 229.136 209.439 233.832 204.226 234.506 222.733 253.885 222.291 249.008 227.705 234.706 228.21 234.899 233.8 239.657 238.086ZM255.505 219.163L232.996 204.269 236.037 199.674 258.546 214.568ZM262.408 206.682L237.622 195.999 243.327 182.763C244.024 181.147 244.804 179.811 245.667 178.755 246.528 177.705 247.43 176.913 248.374 176.38 249.318 175.847 250.288 175.565 251.284 175.536 252.281 175.506 253.261 175.699 254.226 176.115V176.115C255.799 176.793 256.964 177.885 257.721 179.392V179.392C258.89 178.54 260.132 178.067 261.449 177.971 262.771 177.878 264.117 178.127 265.488 178.717V178.717C266.643 179.215 267.601 179.858 268.362 180.645 269.129 181.435 269.672 182.364 269.991 183.434 270.315 184.507 270.395 185.718 270.229 187.067 270.068 188.419 269.638 189.909 268.936 191.538V191.538ZM249.3 195.076L253.674 184.927C253.862 184.491 254.063 184.075 254.278 183.679V183.679C253.906 182.681 253.284 181.994 252.412 181.618V181.618C251.515 181.231 250.669 181.282 249.876 181.771 249.079 182.266 248.39 183.189 247.807 184.541V184.541L244.212 192.883ZM260.195 199.771L264.609 189.531C265.194 188.173 265.349 187.019 265.073 186.069 264.792 185.117 264.122 184.413 263.065 183.958V183.958C262.008 183.502 261.034 183.498 260.142 183.944 259.244 184.388 258.502 185.288 257.917 186.647V186.647L253.503 196.887Z" fill="#8d021f" data-fill-palette-color="secondary"></path><path d="M26.681 113.87L6.349 92.058 8.508 86.673 38.416 84.609 36.275 89.947 31.261 90.261 25.395 104.887 28.829 108.514ZM21.99 101.272L26.275 90.587 12.72 91.433ZM39.684 83.329L17.621 67.782 25.524 56.566C26.719 54.871 27.932 53.527 29.162 52.536 30.387 51.541 31.623 50.868 32.868 50.518 34.119 50.172 35.364 50.136 36.602 50.411 37.846 50.69 39.073 51.256 40.282 52.108V52.108C41.102 52.686 41.812 53.334 42.412 54.051 43.012 54.768 43.479 55.552 43.813 56.401 44.142 57.247 44.331 58.153 44.378 59.12 44.424 60.077 44.313 61.088 44.046 62.152V62.152L54.485 62.324 50.623 67.805 41.429 67.54 41.342 67.663 36.558 74.434 42.835 78.857ZM32.685 71.705L37.519 64.846C38.116 63.998 38.54 63.188 38.79 62.415 39.04 61.641 39.14 60.913 39.089 60.231 39.029 59.55 38.816 58.921 38.453 58.346 38.09 57.779 37.592 57.273 36.957 56.826V56.826C35.727 55.958 34.476 55.712 33.206 56.085 31.94 56.454 30.705 57.491 29.503 59.198V59.198L24.669 66.057ZM57.799 59.734L38.785 40.578 42.696 36.696 61.71 55.852ZM62.892 54.915L58.546 25.415 63.381 22.209 89.17 37.496 84.376 40.674 80.071 38.085 66.936 46.792 67.702 51.727ZM66.186 41.882L75.782 35.521 64.144 28.519ZM90.839 37.228L81.7 11.832 86.857 9.976 105.66 12.576 102.676 4.284 107.833 2.428 116.972 27.824 111.815 29.679 107.625 18.035 88.838 15.482 95.996 35.372ZM130.877 23.16L133.962 18.843C134.923 19.437 135.896 19.974 136.882 20.456 137.874 20.937 138.902 21.353 139.966 21.703 141.037 22.047 142.165 22.323 143.348 22.531 144.532 22.739 145.796 22.869 147.14 22.923V22.923C148.765 22.987 150.149 22.939 151.294 22.777 152.446 22.608 153.387 22.351 154.118 22.005 154.855 21.659 155.397 21.236 155.745 20.734 156.094 20.225 156.28 19.667 156.304 19.058V19.058C156.343 18.082 155.966 17.294 155.173 16.693 154.373 16.085 153.124 15.748 151.426 15.68V15.68C150.677 15.65 149.886 15.669 149.053 15.736 148.22 15.804 147.38 15.877 146.533 15.957 145.679 16.037 144.839 16.111 144.013 16.179 143.187 16.24 142.413 16.256 141.691 16.227V16.227C140.48 16.179 139.326 15.979 138.229 15.627 137.131 15.269 136.167 14.765 135.336 14.116 134.505 13.46 133.853 12.654 133.383 11.698 132.918 10.748 132.711 9.652 132.76 8.408V8.408C132.789 7.673 132.919 6.948 133.148 6.234 133.377 5.513 133.726 4.834 134.193 4.196 134.661 3.552 135.257 2.956 135.982 2.409 136.707 1.868 137.575 1.411 138.588 1.036 139.601 0.661 140.764 0.382 142.077 0.2 143.39 0.018 144.882-0.04 146.554 0.027V0.027C147.757 0.075 148.968 0.19 150.187 0.372 151.398 0.548 152.578 0.782 153.725 1.075 154.872 1.362 155.974 1.694 157.03 2.071 158.086 2.454 159.064 2.872 159.964 3.323V3.323L157.391 7.65C156.649 7.286 155.845 6.942 154.981 6.62 154.116 6.304 153.213 6.024 152.272 5.779 151.324 5.534 150.344 5.331 149.333 5.17 148.315 5.009 147.277 4.907 146.221 4.865V4.865C144.716 4.805 143.472 4.866 142.487 5.048 141.509 5.23 140.725 5.477 140.137 5.788 139.548 6.107 139.132 6.472 138.888 6.884 138.651 7.296 138.524 7.71 138.507 8.124V8.124C138.475 8.927 138.81 9.6 139.512 10.143 140.22 10.68 141.317 10.979 142.801 11.038V11.038C143.396 11.061 144.083 11.045 144.862 10.989 145.641 10.933 146.461 10.872 147.321 10.806 148.187 10.733 149.067 10.671 149.96 10.619 150.852 10.574 151.72 10.569 152.562 10.602V10.602C154.147 10.665 155.544 10.898 156.753 11.301 157.97 11.705 158.976 12.254 159.772 12.948 160.574 13.643 161.171 14.467 161.562 15.42 161.953 16.373 162.125 17.432 162.078 18.595V18.595C162.017 20.146 161.601 21.516 160.83 22.704 160.06 23.885 158.996 24.868 157.639 25.651 156.275 26.434 154.649 27.002 152.76 27.355 150.864 27.715 148.765 27.849 146.465 27.758V27.758C144.948 27.698 143.467 27.542 142.024 27.29 140.587 27.045 139.21 26.723 137.894 26.322 136.577 25.915 135.33 25.443 134.153 24.907 132.969 24.372 131.877 23.789 130.877 23.16ZM164.711 29.356L172.857 3.625 178.073 5.276 175.946 11.993 191.955 17.061 194.082 10.344 199.316 12.001 191.17 37.732 185.936 36.075 190.543 21.52 174.534 16.452 169.927 31.007ZM191.981 38.757L217.701 23.67 222.485 26.952 217.979 56.59 213.237 53.337 214.023 48.375 201.028 39.461 196.74 42.022ZM205.299 36.926L214.793 43.438 216.921 30.024ZM218.912 58.09L238.966 40.026 242.627 44.09 232.246 53.441 252.16 54.672 256.856 59.885 238.379 58.63 236.802 77.95 231.925 72.536 232.912 58.259 227.332 57.869 222.574 62.155ZM236.567 78.682L259.076 63.788 262.116 68.383 239.608 83.277ZM241.75 87.981L266.536 77.299 272.241 90.535C272.937 92.151 273.373 93.636 273.548 94.988 273.721 96.335 273.676 97.534 273.416 98.587 273.155 99.639 272.694 100.537 272.031 101.282 271.368 102.027 270.554 102.607 269.59 103.023V103.023C268.017 103.701 266.423 103.798 264.807 103.313V103.313C264.624 104.748 264.115 105.976 263.281 106.999 262.44 108.024 261.335 108.832 259.965 109.423V109.423C258.809 109.921 257.684 110.176 256.59 110.189 255.489 110.204 254.44 109.96 253.443 109.457 252.441 108.957 251.506 108.183 250.639 107.136 249.767 106.091 248.979 104.754 248.277 103.126V103.126ZM259.189 86.422L263.563 96.571C263.751 97.007 263.915 97.439 264.056 97.866V97.866C265.036 98.282 265.963 98.301 266.835 97.925V97.925C267.732 97.539 268.276 96.889 268.466 95.977 268.653 95.058 268.455 93.923 267.872 92.571V92.571L264.277 84.229ZM248.294 91.118L252.707 101.359C253.293 102.717 254.025 103.621 254.905 104.073 255.79 104.522 256.762 104.519 257.819 104.063V104.063C258.876 103.608 259.548 102.902 259.836 101.948 260.13 100.99 259.985 99.832 259.399 98.474V98.474L254.985 88.234Z" fill="#ee3e38" data-fill-palette-color="primary"></path><path d="M3.087 143.296c0-5.767 4.675-10.442 10.442-10.441 5.767 0 10.442 4.675 10.441 10.441 0 5.767-4.675 10.442-10.441 10.442-5.767 0-10.442-4.675-10.442-10.442zM256.03 143.296c0-5.767 4.675-10.442 10.441-10.441 5.767 0 10.442 4.675 10.442 10.441 0 5.767-4.675 10.442-10.442 10.442-5.767 0-10.442-4.675-10.441-10.442z" fill="#ee3e38" data-fill-palette-color="primary"></path></g></svg></g></svg></g></svg></g></svg></g><defs></defs></svg><rect width="280" height="280" fill="none" stroke="none" visibility="hidden"></rect></g></svg></g></svg>